<?xml version="1.0" encoding="utf-8"?>
<!-- Generator: Adobe Illustrator 23.0.1, SVG Export Plug-In . SVG Version: 6.00 Build 0)  -->
<svg version="1.1" id="Layer_1" xmlns="http://www.w3.org/2000/svg" xmlns:xlink="http://www.w3.org/1999/xlink" x="0px" y="0px"
	 viewBox="0 0 24 21" style="enable-background:new 0 0 24 21;" xml:space="preserve">
<style type="text/css">
	.st0{fill-rule:evenodd;clip-rule:evenodd;fill:#FFFFFF;}
</style>
<path id="google_plus" class="st0" d="M24,3.8h-3.8V0h-1.5v3.7H15v1.5h3.8V9h1.5V5.3H24V3.8z M10.6,12c-0.6-0.4-1.7-1.4-1.7-2
	c0-0.7,0.2-1,1.2-1.8c1.1-0.7,1.8-1.9,1.9-3.2c0-1.5-0.8-2.9-2.1-3.6h2L13.3,0H7C4.1,0,1.5,2.3,1.5,4.8c0,2.6,2,4.6,4.6,4.7
	c0.1,0,0.2,0,0.2,0c0.2,0,0.4,0,0.6,0c-0.2,0.4-0.3,0.8-0.3,1.2c0,0.7,0.3,1.3,0.9,1.8c-0.4,0-0.7,0-1.1,0C2.8,12.4,0,14.7,0,17
	c0,2.3,3.1,4,6.6,4c4,0,6.2-2.5,6.2-4.8C12.9,14.5,12,12.9,10.6,12z M7.2,8.9C5.6,8.8,4,7,3.7,4.9s0.8-3.8,2.4-3.7s3.3,1.8,3.5,3.9
	S8.8,8.9,7.2,8.9z M6.6,19.5c-2.4,0-4.2-1.4-4.2-3.2C2.4,14.5,4.6,13,7,13c0.5,0,1.1,0.1,1.6,0.3c1.3,0.9,2.3,1.4,2.5,2.5
	c0.1,0.2,0.1,0.4,0.1,0.6C11.2,18.3,10,19.5,6.6,19.5z"/>
</svg>
