<?xml version="1.0" encoding="utf-8"?>
<!-- Generator: Adobe Illustrator 23.0.1, SVG Export Plug-In . SVG Version: 6.00 Build 0)  -->
<svg version="1.1" id="Layer_1" xmlns="http://www.w3.org/2000/svg" xmlns:xlink="http://www.w3.org/1999/xlink" x="0px" y="0px"
	 viewBox="0 0 24 24" style="enable-background:new 0 0 24 24;" xml:space="preserve">
<style type="text/css">
	.st0{fill-rule:evenodd;clip-rule:evenodd;fill:#FFFFFF;}
</style>
<path id="pinterest" class="st0" d="M12,0C5.4,0,0,5.4,0,12c0,4.8,2.8,9.1,7.3,11c0-0.9,0-1.8,0.2-2.7c0.2-1,1.6-6.6,1.6-6.6
	c-0.3-0.6-0.4-1.3-0.4-1.9c0-1.8,1-3.1,2.3-3.1c0.9,0,1.6,0.7,1.6,1.6c0,0.1,0,0.1,0,0.2c-0.2,1.5-0.6,2.9-1.1,4.3
	c-0.3,1,0.4,2,1.4,2.3c0.2,0,0.4,0.1,0.5,0.1c2.3,0,3.8-2.9,3.8-6.4c0-2.6-1.8-4.6-5-4.6C9.1,6,6.4,8.4,6.3,11.6c0,0.1,0,0.2,0,0.3
	c0,0.9,0.2,1.7,0.8,2.4c0.2,0.2,0.3,0.4,0.2,0.7c-0.1,0.2-0.2,0.8-0.2,1c0,0.2-0.3,0.4-0.5,0.3c0,0-0.1,0-0.1,0
	c-1.7-0.7-2.5-2.5-2.5-4.6C3.9,8.1,6.8,4,12.6,4c4.6,0,7.6,3.3,7.6,6.9c0,4.7-2.6,8.3-6.5,8.3c-1.2,0-2.3-0.5-2.9-1.5
	c0,0-0.7,2.8-0.8,3.3c-0.3,0.9-0.7,1.8-1.2,2.5c6.4,1.8,13-1.9,14.8-8.2c1.8-6.4-1.9-13-8.2-14.8C14.2,0.2,13.1,0,12,0z"/>
</svg>
