<?xml version="1.0" encoding="utf-8"?>
<!-- Generator: Adobe Illustrator 23.0.1, SVG Export Plug-In . SVG Version: 6.00 Build 0)  -->
<svg version="1.1" id="Layer_1" xmlns="http://www.w3.org/2000/svg" xmlns:xlink="http://www.w3.org/1999/xlink" x="0px" y="0px"
	 viewBox="0 0 24 20" style="enable-background:new 0 0 24 20;" xml:space="preserve">
<style type="text/css">
	.st0{fill-rule:evenodd;clip-rule:evenodd;fill:#FFFFFF;}
</style>
<path id="twitter" class="st0" d="M24,2.4c-0.9,0.4-1.8,0.7-2.7,0.8c1-0.7,1.7-1.6,2.1-2.8c-0.9,0.6-2,1-3.1,1.1l0,0
	C19.3,0.6,18,0,16.7,0c-2.8,0-5,2.3-5,5.1c0,0,0,0,0,0c0,0.4,0,0.8,0.1,1.1l0,0C7.8,6,4.1,4.1,1.6,0.9C0.3,3.2,1,6.1,3.1,7.6
	C2.4,7.7,1.6,7.5,1,7.1c-0.1,2.4,1.5,4.5,3.8,5c-0.7,0.2-1.4,0.3-2.1,0.2c0.2,1.5,2.2,3.5,4.4,3.5c-1.9,1.7-4.6,2.5-7.1,2.1
	C2.3,19.2,5,20,7.7,20c7.7,0,13.9-6.3,13.9-14c0-0.3,0-0.5,0-0.8c0,0,0,0,0,0c0,0,0,0,0-0.1s0,0,0-0.1C22.6,4.3,23.4,3.4,24,2.4z"/>
</svg>
